<svg width="1193" height="112" viewBox="0 0 1193 112" fill="none" xmlns="http://www.w3.org/2000/svg">
<g opacity="0.2" clip-path="url(#clip0_22_881)">
<path opacity="0.5" d="M674.5 0.861762C412.9 10.8618 132.167 55.0284 24.5 75.8618V111.362H1192.5C1128.83 70.3618 936.1 -9.13824 674.5 0.861762Z" fill="url(#paint0_linear_22_881)"/>
<path d="M45.4775 54.5846L45.4762 54.5823C43.5804 50.9804 43.059 50.4975 38.7972 49.9908L38.7963 49.9907C35.1299 49.5547 33.8036 51.5836 33.5035 52.1607C28.4465 62.8453 17.9394 84.4036 6.44 104.205C20.7639 86.4385 37.0701 68.9674 45.2633 60.3893C46.1951 59.4111 47.352 58.1465 45.4775 54.5846Z" fill="#F2D422"/>
<path d="M36.8199 54.4405C37.1197 53.8634 38.4462 51.8346 42.1127 52.2705L42.1135 52.2706C43.0171 52.3781 43.7513 52.4847 44.3673 52.6201C43.1684 50.7663 42.1187 50.3855 38.7974 49.9906L38.7965 49.9904C35.13 49.5545 33.8037 51.5834 33.5037 52.1604C28.4467 62.8451 17.9396 84.4034 6.44014 104.205C10.8426 98.7441 15.4323 93.3118 19.9161 88.1568C27.1811 74.4964 33.312 61.852 36.8199 54.4405Z" fill="#E8C018"/>
</g>
<defs>
<linearGradient id="paint0_linear_22_881" x1="666.9" y1="-17.5292" x2="667.5" y2="179.944" gradientUnits="userSpaceOnUse">
<stop stop-color="#FD749B"/>
<stop offset="1" stop-color="#281AC8"/>
</linearGradient>
<clipPath id="clip0_22_881">
<rect width="1192" height="111.362" fill="white" transform="translate(0.5)"/>
</clipPath>
</defs>
</svg>
