<svg width="14" height="22" viewBox="0 0 14 22" fill="none" xmlns="http://www.w3.org/2000/svg">
<path d="M7.26322 2.93205C9.87861 2.93205 12.0325 5.08586 12.0325 7.70124C12.0325 8.5474 11.8017 9.39351 11.3401 10.1627L11.1094 10.6244L11.5709 12.0858C11.7248 12.6243 12.1094 13.009 12.6478 13.3167C13.1094 13.5474 13.4171 14.009 13.4171 14.5475V14.8551C13.4171 15.4705 12.8786 16.009 12.2632 16.009H2.26322C1.64784 16.009 1.10938 15.4705 1.10938 14.8551V14.5475C1.10938 14.009 1.41707 13.5474 1.87861 13.3167C2.34014 13.0859 2.72476 12.6243 2.95553 12.0858L3.41707 10.6244L3.1863 10.1627C1.80168 7.93197 2.57092 4.93197 4.80169 3.62428C5.57092 3.16274 6.41707 2.93205 7.26322 2.93205Z" stroke="white" stroke-linecap="round" stroke-linejoin="round"/>
<path d="M7.26307 20.6244C8.11274 20.6244 8.80153 19.9356 8.80153 19.0859C8.80153 18.2363 8.11274 17.5475 7.26307 17.5475C6.4134 17.5475 5.72461 18.2363 5.72461 19.0859C5.72461 19.9356 6.4134 20.6244 7.26307 20.6244Z" stroke="white" stroke-linecap="round" stroke-linejoin="round"/>
<path d="M5.72461 2.93282V2.16359C5.72461 1.31744 6.41692 0.62513 7.26307 0.62513C8.10923 0.62513 8.80153 1.31744 8.80153 2.16359V2.93282" stroke="white" stroke-linecap="round" stroke-linejoin="round"/>
</svg>
