<svg width="11" height="12" viewBox="0 0 11 12" fill="none" xmlns="http://www.w3.org/2000/svg">
<path d="M4.43677 0.969259C4.64929 0.946052 4.88805 1.05088 4.97431 1.27945L5.14008 1.71896C6.25876 1.67778 7.34437 2.27813 7.72667 3.29172C7.9544 3.89564 7.88083 4.51695 7.59022 5.0385C8.66836 5.12705 9.65555 5.75361 10.0278 6.74066C10.5316 8.07665 9.69319 9.47953 8.23382 9.92152L8.36719 10.2751C8.46574 10.5364 8.29512 10.7738 8.0647 10.842C7.83479 10.91 7.53694 10.8117 7.43826 10.55L7.30523 10.1973L6.87635 10.3242L7.00938 10.6769C7.10804 10.9385 6.93665 11.1757 6.70689 11.2438C6.47695 11.3119 6.17822 11.2138 6.07951 10.9521L5.94648 10.5994L4.16821 11.1256C3.96714 11.185 3.7139 11.1176 3.58757 10.9247L3.54177 10.8336L3.51692 10.7373C3.48656 10.5156 3.64306 10.3263 3.84426 10.2667L4.27876 10.1381L1.79984 3.56566L1.36534 3.69423C1.16402 3.75372 0.910527 3.68585 0.784346 3.49237L0.738893 3.40222L0.714041 3.30597C0.683611 3.08418 0.840126 2.89495 1.04138 2.83532L2.26154 2.47426L2.26189 2.47518L2.82 2.31002L2.68662 1.95641C2.58794 1.69477 2.76037 1.4572 2.99005 1.38924L3.07802 1.37133C3.29042 1.34797 3.53012 1.45211 3.61649 1.68125L3.74987 2.03486L4.17875 1.90795L4.04538 1.55434C3.94672 1.29276 4.11826 1.05547 4.34787 0.987443L4.43677 0.969259ZM5.20769 9.86324L7.89055 9.06935C8.37566 8.9258 8.76405 8.62848 8.9893 8.23737L9.0655 8.08888C9.22068 7.73921 9.23052 7.36463 9.0989 7.01554C8.9485 6.61678 8.62757 6.28909 8.18312 6.09714L8.18218 6.09741C7.73665 5.90494 7.22441 5.87399 6.73948 6.01749L4.05663 6.81138L5.20769 9.86324ZM3.73268 5.95247L5.77127 5.34923C6.1826 5.22014 6.51012 4.96363 6.70224 4.62987L6.70317 4.6296L6.76896 4.50043C6.90435 4.19563 6.91206 3.86983 6.79773 3.56661C6.66698 3.21993 6.3885 2.93405 6.00047 2.7665L5.99954 2.76678C5.61055 2.59877 5.16247 2.57162 4.73774 2.69731L2.72911 3.29169L3.73268 5.95247Z" fill="white" stroke="white" stroke-width="0.5"/>
</svg>
