<svg width="17" height="124" viewBox="0 0 17 124" fill="none" xmlns="http://www.w3.org/2000/svg">
<path d="M2.36667 3.73333C1.33574 3.73333 0.500004 2.8976 0.500004 1.86667C0.500004 0.835735 1.33574 0 2.36667 0C3.3976 0 4.23334 0.835735 4.23334 1.86667C4.23334 2.8976 3.3976 3.73333 2.36667 3.73333Z" fill="white"/>
<path d="M8.49997 3.73333C7.46904 3.73333 6.6333 2.8976 6.6333 1.86667C6.6333 0.835735 7.46904 0 8.49997 0C9.5309 0 10.3666 0.835735 10.3666 1.86667C10.3666 2.8976 9.5309 3.73333 8.49997 3.73333Z" fill="white"/>
<path d="M14.6333 3.73333C13.6024 3.73333 12.7667 2.8976 12.7667 1.86667C12.7667 0.835735 13.6024 0 14.6333 0C15.6643 0 16.5 0.835735 16.5 1.86667C16.5 2.8976 15.6643 3.73333 14.6333 3.73333Z" fill="white"/>
</svg>
