<svg width="16" height="4" viewBox="0 0 16 4" fill="none" xmlns="http://www.w3.org/2000/svg">
<path d="M1.86661 3.86663C0.835678 3.86663 -5.6982e-05 3.0309 -5.6982e-05 1.99997C-5.6982e-05 0.969036 0.835678 0.133301 1.86661 0.133301C2.89754 0.133301 3.73328 0.969036 3.73328 1.99997C3.73328 3.0309 2.89754 3.86663 1.86661 3.86663Z" fill="white"/>
<path d="M8.00003 3.86663C6.9691 3.86663 6.13337 3.0309 6.13337 1.99997C6.13337 0.969036 6.9691 0.133301 8.00003 0.133301C9.03096 0.133301 9.8667 0.969036 9.8667 1.99997C9.8667 3.0309 9.03096 3.86663 8.00003 3.86663Z" fill="white"/>
<path d="M14.1333 3.86663C13.1024 3.86663 12.2667 3.0309 12.2667 1.99997C12.2667 0.969036 13.1024 0.133301 14.1333 0.133301C15.1643 0.133301 16 0.969036 16 1.99997C16 3.0309 15.1643 3.86663 14.1333 3.86663Z" fill="white"/>
</svg>
