<svg width="16" height="16" viewBox="0 0 16 16" fill="none" xmlns="http://www.w3.org/2000/svg">
<path d="M5.20898 0.50293V0.501953L6.33203 1.15137L5.20703 1.55762C2.93265 2.37875 1.19699 4.33456 0.6875 6.74219L0.641602 6.97656C0.439489 8.12191 0.523538 9.30021 0.883789 10.3994L0.958984 10.6182C0.960476 10.6224 0.96074 10.627 0.958984 10.6309L0.949219 10.6396C0.946721 10.6406 0.944589 10.6406 0.943359 10.6406C0.940429 10.6406 0.936058 10.6401 0.932617 10.6377C0.931305 10.6368 0.930426 10.6357 0.929688 10.6348L0.926758 10.6299C0.528301 9.53757 0.406494 8.3571 0.571289 7.20215L0.608398 6.9707C1.05601 4.43223 2.85671 2.35372 5.2373 1.51074L6.25977 1.14844L5.32129 0.606445L5.19238 0.532227L5.18359 0.521484L5.18555 0.508789C5.19026 0.500632 5.20058 0.498092 5.20898 0.50293ZM6.44336 1.21582L6.45215 1.22559C6.45319 1.22945 6.45238 1.23422 6.4502 1.23828L5.7373 2.47266C5.73628 2.47443 5.73507 2.47584 5.73438 2.47656C5.73361 2.47732 5.73264 2.4788 5.73145 2.47949C5.72865 2.48107 5.72478 2.48145 5.72168 2.48145C5.72062 2.48144 5.71964 2.48164 5.71875 2.48145L5.71387 2.47949C5.70976 2.47712 5.70718 2.47299 5.70605 2.46875L5.70703 2.45605H5.70801L5.80957 2.27832L6.42773 1.20703L6.44336 1.21582Z" stroke="white"/>
<path d="M13.0293 12.7405C13.0318 12.7426 13.0335 12.7441 13.0342 12.7454C13.035 12.747 13.0359 12.7496 13.0361 12.7522C13.0363 12.7548 13.0357 12.7574 13.0352 12.759L13.0322 12.7639C11.6726 14.3813 9.66183 15.2971 7.58594 15.2971C7.28104 15.2971 6.97478 15.2777 6.66895 15.2375L6.36328 15.1907C5.12227 14.9718 3.96586 14.4242 3.0127 13.6184L2.19043 12.9231L2.18945 14.0002V14.1799C2.18945 14.1893 2.18206 14.1973 2.17285 14.1975L2.16016 14.1926C2.15696 14.1895 2.15527 14.1847 2.15527 14.1799V12.8713L3.11426 13.6584C3.9301 14.3279 4.89048 14.8106 5.92285 15.0627L6.36914 15.1565C8.7676 15.5798 11.2283 14.7251 12.8516 12.9202L13.0059 12.7424C13.009 12.7388 13.0131 12.7369 13.0176 12.7366L13.0293 12.7405ZM2.1748 12.7356L2.19824 12.7375H3.59863C3.60789 12.7378 3.61523 12.7458 3.61523 12.7551C3.61518 12.7644 3.60784 12.7715 3.59863 12.7717H2.15625V12.7512C2.15655 12.7483 2.15745 12.7459 2.1582 12.7444L2.16211 12.7395C2.1642 12.7378 2.16572 12.737 2.16699 12.7366C2.16872 12.736 2.17196 12.7353 2.1748 12.7356Z" stroke="white"/>
<path d="M13.54 9.44281C13.5425 9.44352 13.5445 9.44466 13.5459 9.44574L13.5498 9.45062L13.626 9.58246L14.2705 10.6996L14.2568 10.7084C14.2542 10.7099 14.251 10.7114 14.248 10.7114L14.2432 10.7104L14.2334 10.7026L13.5205 9.4682C13.5181 9.46396 13.5174 9.4588 13.5186 9.45453L13.5264 9.44476H13.5273C13.53 9.44324 13.5318 9.44201 13.5332 9.44183C13.535 9.44165 13.5375 9.44214 13.54 9.44281ZM8.82812 1.21527C10.6953 1.54429 12.3206 2.58003 13.4082 4.13324C14.4956 5.68641 14.9121 7.56752 14.583 9.435V9.43597C14.5765 9.47327 14.575 9.47262 14.5625 9.53754L14.3564 10.6118L15.3037 10.0649L15.4736 9.96625C15.4764 9.96464 15.479 9.96448 15.4805 9.96429C15.4823 9.9641 15.4848 9.96362 15.4873 9.96429C15.4897 9.96497 15.4918 9.9662 15.4932 9.96722L15.4971 9.97211V9.97308C15.4994 9.97715 15.5002 9.98155 15.499 9.98578L15.4912 9.99652L14.333 10.6635L14.5518 9.4184C14.855 7.68128 14.5079 5.92791 13.5742 4.44574L13.3799 4.15277C12.3662 2.70498 10.8787 1.70732 9.16699 1.31879L8.82227 1.24945C8.81766 1.24864 8.81306 1.24616 8.81055 1.24261L8.80762 1.22992V1.22894C8.80844 1.22466 8.81105 1.22066 8.81445 1.2182L8.82812 1.21527Z" stroke="white"/>
</svg>
