<svg width="904" height="251" viewBox="0 0 904 251" fill="none" xmlns="http://www.w3.org/2000/svg">
<path d="M411.692 71.2497C411.325 71.2497 410.999 71.0156 410.882 70.668C409.241 65.8049 408.012 64.5765 403.149 62.9354C402.801 62.8179 402.567 62.4917 402.567 62.1247C402.567 61.7577 402.801 61.4315 403.149 61.3143C408.012 59.6732 409.24 58.4445 410.882 53.5817C410.999 53.2341 411.325 53 411.692 53C412.059 53 412.385 53.2341 412.503 53.5817C414.144 58.4445 415.372 59.6732 420.235 61.3143C420.583 61.4318 420.817 61.7577 420.817 62.1247C420.817 62.4917 420.583 62.8179 420.235 62.9354C415.372 64.5765 414.144 65.8049 412.503 70.668C412.386 71.0156 412.059 71.2497 411.692 71.2497Z" fill="#FFD00D"/>
<path d="M569.256 16.2298C568.987 16.1151 568.821 15.8414 568.843 15.5501C569.161 11.4724 568.644 10.1878 565.593 7.46464C565.375 7.26982 565.305 6.9576 565.42 6.68849C565.535 6.41963 565.809 6.2537 566.1 6.27618C570.177 6.5937 571.462 6.07706 574.185 3.02581C574.38 2.80756 574.692 2.73805 574.961 2.85283C575.231 2.96762 575.396 3.24097 575.374 3.53283C575.056 7.6102 575.573 8.89483 578.624 11.6183C578.842 11.8128 578.912 12.1253 578.797 12.3942C578.682 12.6633 578.409 12.8289 578.117 12.8067C574.04 12.4895 572.755 13.0056 570.032 16.0571C569.837 16.2749 569.525 16.3445 569.256 16.2298Z" fill="white"/>
<path d="M896.411 250.688C896.136 250.688 895.891 250.512 895.803 250.251C894.572 246.604 893.651 245.683 890.004 244.452C889.743 244.364 889.567 244.119 889.567 243.844C889.567 243.569 889.743 243.324 890.004 243.236C893.651 242.005 894.572 241.083 895.803 237.436C895.891 237.176 896.136 237 896.411 237C896.686 237 896.931 237.176 897.019 237.436C898.25 241.083 899.171 242.005 902.819 243.236C903.079 243.324 903.255 243.569 903.255 243.844C903.255 244.119 903.079 244.364 902.819 244.452C899.171 245.683 898.25 246.604 897.019 250.251C896.931 250.512 896.686 250.688 896.411 250.688Z" fill="white"/>
<path d="M25.0491 75.0862L20.713 70.42L22.0989 64.2029C22.1761 63.8559 22.0497 63.4951 21.773 63.2723C21.4963 63.0496 21.117 63.003 20.7944 63.1528L15.0167 65.8346L9.53192 62.5951C8.86735 62.2026 8.03749 62.7442 8.13027 63.5112L8.89526 69.835L4.11941 74.0504C3.54084 74.5613 3.79925 75.5184 4.55755 75.6665L10.8082 76.8931C13.568 83.2596 13.3658 82.895 13.6125 83.0937C13.7634 83.2151 13.9512 83.289 14.1521 83.2989C14.507 83.3163 14.8412 83.1311 15.0141 82.8207L18.1121 77.2547L24.4532 76.6512C25.2216 76.5785 25.5752 75.6526 25.0491 75.0862Z" fill="#FFA92C"/>
<path d="M12.1007 74.5298L11.3357 68.206C11.243 67.4399 12.072 66.897 12.7373 67.2899L18.2221 70.5294L20.9733 69.2524L22.0989 64.2029C22.1761 63.8559 22.0497 63.4951 21.773 63.2723C21.4963 63.0496 21.117 63.003 20.7944 63.1528L15.0167 65.8346L9.53192 62.5951C8.86735 62.2026 8.03749 62.7442 8.13027 63.5112L8.89526 69.835L4.11941 74.0504C3.54084 74.5613 3.79925 75.5184 4.55755 75.6665L9.67476 76.6707L12.1007 74.5298Z" fill="#FF8828"/>
<path d="M197.567 223C198.864 221.382 203.109 219.141 207.236 221.133C211.441 223.163 213.21 221.336 214.663 217.273C216.668 211.671 223.27 211.92 224.567 216.029" stroke="url(#paint0_linear_22_873)" stroke-width="3" stroke-linecap="round" stroke-linejoin="round"/>
<defs>
<linearGradient id="paint0_linear_22_873" x1="191.538" y1="216.617" x2="195.345" y2="230.828" gradientUnits="userSpaceOnUse">
<stop stop-color="#FC58B3"/>
<stop offset="1" stop-color="#FEAE68"/>
</linearGradient>
</defs>
</svg>
