<svg width="60" height="59" viewBox="0 0 60 59" fill="none" xmlns="http://www.w3.org/2000/svg">
<path opacity="0.2" fill-rule="evenodd" clip-rule="evenodd" d="M30 59C46.2924 59 59.5 45.7924 59.5 29.5C59.5 13.2076 46.2924 0 30 0C13.7076 0 0.5 13.2076 0.5 29.5C0.5 45.7924 13.7076 59 30 59Z" fill="url(#paint0_linear_19_125)"/>
<path opacity="0.2" fill-rule="evenodd" clip-rule="evenodd" d="M30.5 48C40.4411 48 48.5 39.9411 48.5 30C48.5 20.0589 40.4411 12 30.5 12C20.5589 12 12.5 20.0589 12.5 30C12.5 39.9411 20.5589 48 30.5 48Z" fill="url(#paint1_linear_19_125)"/>
<path opacity="0.2" fill-rule="evenodd" clip-rule="evenodd" d="M30.5 39C35.4706 39 39.5 34.9706 39.5 30C39.5 25.0294 35.4706 21 30.5 21C25.5294 21 21.5 25.0294 21.5 30C21.5 34.9706 25.5294 39 30.5 39Z" fill="url(#paint2_linear_19_125)"/>
<defs>
<linearGradient id="paint0_linear_19_125" x1="32.95" y1="-9.28704" x2="36.2787" y2="95.2302" gradientUnits="userSpaceOnUse">
<stop stop-color="#FD749B"/>
<stop offset="1" stop-color="#281AC8"/>
</linearGradient>
<linearGradient id="paint1_linear_19_125" x1="32.3" y1="6.33333" x2="34.3311" y2="70.1066" gradientUnits="userSpaceOnUse">
<stop stop-color="#FD749B"/>
<stop offset="1" stop-color="#281AC8"/>
</linearGradient>
<linearGradient id="paint2_linear_19_125" x1="31.4" y1="18.1667" x2="32.4155" y2="50.0533" gradientUnits="userSpaceOnUse">
<stop stop-color="#FD749B"/>
<stop offset="1" stop-color="#281AC8"/>
</linearGradient>
</defs>
</svg>
