<svg width="61" height="16" viewBox="0 0 61 16" fill="none" xmlns="http://www.w3.org/2000/svg">
<path d="M32.9062 7.43456C33.7959 6.83594 34.3808 5.82031 34.3808 4.66747C34.3808 3.05759 33.2392 1.71384 31.7212 1.40234V0.333C31.7211 0.149406 31.5722 0 31.3881 0C31.204 0 31.0546 0.149406 31.0546 0.333V1.33397C31.0522 1.33397 31.0497 1.33397 31.0478 1.33397H29.7074V0.333C29.7075 0.149406 29.558 0 29.374 0C29.1899 0 29.0405 0.149406 29.0405 0.333V1.33397H27.5014V1.333H26.0478C25.8637 1.333 25.7143 1.48244 25.7143 1.6665C25.7143 1.85056 25.8637 2 26.0478 2H27.0478V14H26.0478C25.8637 14 25.7143 14.1494 25.7143 14.3335C25.7143 14.5176 25.8637 14.667 26.0478 14.667H29.0405V15.6665C29.0405 15.8506 29.1899 16 29.374 16C29.5581 16 29.7075 15.8506 29.7075 15.6665V14.667H31.0546V15.6665C31.0546 15.8506 31.204 16 31.3881 16C31.5722 16 31.7211 15.8506 31.7211 15.6665V14.667H32.0478C34.0727 14.667 35.7143 13.0254 35.7143 11C35.7143 9.2705 34.517 7.82128 32.9062 7.43456ZM27.7143 2.00097H31.0478C31.7597 2.00097 32.4296 2.27831 32.933 2.78172C33.437 3.28513 33.7143 3.95506 33.7143 4.66747C33.7143 5.37987 33.437 6.04931 32.933 6.55272C32.4414 7.04491 31.7915 7.32078 31.0976 7.33347H27.7143V2.00097ZM34.1689 13.1216C33.6025 13.6885 32.849 14 32.0478 14H27.7143V8.00097H31.0478C31.0639 8.00097 31.08 8.00047 31.0956 8H32.0478C32.8491 8 33.6025 8.3125 34.1689 8.87891C34.7358 9.44531 35.0478 10.1987 35.0478 11C35.0478 11.8018 34.7358 12.5547 34.1689 13.1216Z" fill="white"/>
</svg>
