<svg width="171" height="218" viewBox="0 0 171 218" fill="none" xmlns="http://www.w3.org/2000/svg">
<path d="M85.6758 198C132.717 198 170.852 159.866 170.852 112.824C170.852 65.7829 132.717 27.6484 85.6758 27.6484C38.6345 27.6484 0.5 65.7829 0.5 112.824C0.5 159.866 38.6345 198 85.6758 198Z" fill="#6F1265"/>
<path d="M91.7598 145.78V127.14C91.0419 127.316 90.292 127.411 89.5198 127.411H81.8317C81.0596 127.411 80.3097 127.316 79.5918 127.14V145.78H91.7598Z" fill="#FFAF10"/>
<path d="M84.9805 145.78V127.411H81.8317C81.0596 127.411 80.3097 127.316 79.5918 127.14V145.78H84.9805Z" fill="#EF9614"/>
<path d="M85.6757 119.083C81.016 119.083 76.5535 118.225 72.4348 116.663V118.377C72.4348 123.566 76.6418 127.773 81.8316 127.773H89.5197C94.7095 127.773 98.9165 123.566 98.9165 118.377V116.663C94.7975 118.225 90.3353 119.083 85.6757 119.083Z" fill="#FFD00D"/>
<path d="M83.2053 119C79.4374 118.753 75.8201 117.947 72.4353 116.663V118.377C72.4353 123.566 76.6423 127.773 81.8321 127.773H89.5202C90.0413 127.773 90.552 127.729 91.0499 127.648C86.7879 126.95 83.4925 123.386 83.2053 119Z" fill="#FFAF10"/>
<path d="M99.2344 152.805V146.895C99.2344 145.938 98.4521 145.156 97.4961 145.156H73.8555C72.8994 145.156 72.1172 145.938 72.1172 146.895V152.805H99.2344Z" fill="#EF8318"/>
<path d="M82.5469 152.805V146.895C82.5469 145.938 83.3291 145.156 84.2852 145.156H73.8555C72.8994 145.156 72.1172 145.938 72.1172 146.895V152.805H82.5469Z" fill="#DB722C"/>
<path d="M118.529 182.355V153.848C118.529 152.892 117.747 152.109 116.791 152.109H54.5605C53.6045 152.109 52.8223 152.892 52.8223 153.848V182.355H118.529Z" fill="#A05F33"/>
<path d="M58.2109 182.355V153.848C58.2109 152.892 58.9932 152.109 59.9492 152.109H54.5605C53.6045 152.109 52.8223 152.892 52.8223 153.848V182.355H58.2109Z" fill="#87502A"/>
<path d="M108.976 174.707C108.976 175.663 108.194 176.445 107.238 176.445H64.1135C63.1575 176.445 62.3752 175.663 62.3752 174.707V160.105C62.3752 159.149 63.1575 158.367 64.1135 158.367H107.238C108.194 158.367 108.976 159.149 108.976 160.105V174.707Z" fill="#293D7C"/>
<path d="M69.3204 174.707V160.105C69.3204 159.149 70.1026 158.367 71.0587 158.367H64.1135C63.1575 158.367 62.3752 159.149 62.3752 160.105V174.707C62.3752 175.663 63.1575 176.445 64.1135 176.445H71.0587C70.1026 176.445 69.3204 175.663 69.3204 174.707Z" fill="#1A2B63"/>
<path d="M125.83 182.008H45.5215C44.5654 182.008 43.7832 182.79 43.7832 183.746V186.997C56.1535 193.999 70.4467 198 85.6758 198C100.905 198 115.198 193.999 127.568 186.997V183.746C127.568 182.79 126.786 182.008 125.83 182.008Z" fill="#BF7E52"/>
<path d="M54.3867 183.746C54.3867 182.79 55.1689 182.008 56.125 182.008H45.5215C44.5654 182.008 43.7832 182.79 43.7832 183.746V186.997C47.1795 188.92 50.721 190.614 54.3867 192.063V183.746Z" fill="#AA6B3F"/>
<path d="M144.171 28.897H130.697V31.8204C130.697 32.5874 130.074 33.2111 129.307 33.2111H123.473C123.281 33.2111 123.125 33.3668 123.125 33.5587V37.5884H141.349C140.605 52.8168 133.72 66.4581 123.125 76.0851V81.6344C123.125 83.6536 122.962 85.6352 122.653 87.5685C139.244 75.9001 150.108 56.6129 150.108 34.8339C150.108 31.56 147.444 28.897 144.171 28.897Z" fill="#FFAF10"/>
<path d="M48.2269 81.6344V76.0851C37.6321 66.4581 30.7467 52.8168 30.0027 37.5884H48.2269V33.5587C48.2269 33.3668 48.0711 33.2111 47.8792 33.2111H42.0449C41.2779 33.2111 40.6542 32.5874 40.6542 31.8204V28.897H27.1808C23.9073 28.897 21.2439 31.5604 21.2439 34.8339C21.2439 56.6132 32.1078 75.9005 48.6987 87.5689C48.3896 85.6352 48.2269 83.6536 48.2269 81.6344Z" fill="#FFD00D"/>
<path d="M47.8792 33.2109V81.6342C47.8792 102.509 64.8013 119.431 85.6756 119.431C106.55 119.431 123.472 102.509 123.472 81.6342V33.2109H47.8792Z" fill="#EF8318"/>
<path d="M55.4296 81.6343V32.8644H47.8792V81.6343C47.8792 102.509 64.8013 119.431 85.6757 119.431C86.9415 119.431 88.1906 119.364 89.4241 119.241C70.335 117.334 55.4296 101.225 55.4296 81.6343Z" fill="#DB722C"/>
<path d="M85.6758 99.7871C99.8842 99.7871 111.402 88.2689 111.402 74.0605C111.402 59.8522 99.8842 48.334 85.6758 48.334C71.4674 48.334 59.9492 59.8522 59.9492 74.0605C59.9492 88.2689 71.4674 99.7871 85.6758 99.7871Z" fill="#DB722C"/>
<path d="M66.5547 74.0601C66.5547 60.9716 76.3311 50.1741 88.9785 48.5519C87.8966 48.4132 86.7959 48.3336 85.6758 48.3336C71.4674 48.3336 59.9492 59.8518 59.9492 74.0601C59.9492 88.2685 71.4674 99.7867 85.6758 99.7867C86.7959 99.7867 87.8966 99.7071 88.9785 99.5684C76.3311 97.9466 66.5547 87.1487 66.5547 74.0601Z" fill="#C95E23"/>
<path d="M94.6302 90.1216C94.205 90.1219 93.7701 90.0065 93.338 89.7791L86.3337 86.0971C86.228 86.0415 85.9923 85.9765 85.6763 85.9765C85.3599 85.9765 85.1242 86.0415 85.0178 86.0971L78.0143 89.7791C77.5818 90.0065 77.1469 90.1216 76.7221 90.1216C76.0768 90.1216 75.4994 89.8584 75.0968 89.3807C74.65 88.8512 74.4804 88.1163 74.6184 87.3115L75.9562 79.5128C76.0149 79.1704 75.7983 78.5039 75.5498 78.2613L69.8837 72.7381C69.1459 72.0188 68.8786 71.1274 69.1501 70.2923C69.4216 69.4572 70.1618 68.8937 71.1811 68.7456L79.011 67.608C79.3545 67.558 79.9219 67.146 80.0756 66.8345L83.5772 59.7388C84.0333 58.8151 84.7981 58.2856 85.6763 58.2856C86.5545 58.2856 87.3197 58.8151 87.7751 59.7388L91.277 66.8345C91.4307 67.146 91.9977 67.5583 92.3412 67.608L100.171 68.7456C101.19 68.8937 101.931 69.4572 102.202 70.2923C102.474 71.1274 102.207 72.0188 101.469 72.7377L95.8028 78.2613C95.5539 78.5036 95.3373 79.1704 95.3961 79.5128L96.7335 87.3115C96.8715 88.1163 96.7019 88.8512 96.2555 89.3807C95.8526 89.8584 95.2751 90.1216 94.6302 90.1216Z" fill="#FFD00D"/>
<path d="M80.3568 86.566L81.8062 78.1155C81.8698 77.7446 81.6351 77.0218 81.3657 76.7593L75.2257 70.7744C74.4717 70.0391 74.1779 69.1387 74.3931 68.2793L71.1804 68.7462C70.1611 68.8943 69.4209 69.4578 69.1494 70.2929C68.8779 71.128 69.1452 72.0194 69.8829 72.7387L75.549 78.2619C75.7976 78.5042 76.0142 79.171 75.9554 79.5135L74.6177 87.3121C74.48 88.1169 74.6497 88.8518 75.096 89.3813C75.499 89.859 76.0761 90.1222 76.7213 90.1222C77.1465 90.1222 77.5811 90.0071 78.0136 89.7797L80.6109 88.4142C80.3314 87.892 80.2389 87.2537 80.3568 86.566Z" fill="#FFAF10"/>
<path d="M131.045 31.8203C131.045 32.7764 130.263 33.5586 129.307 33.5586H42.0449C41.0889 33.5586 40.3066 32.7764 40.3066 31.8203V21.7383C40.3066 20.7822 41.0889 20 42.0449 20H129.307C130.263 20 131.045 20.7822 131.045 21.7383V31.8203Z" fill="#FFD00D"/>
<path d="M50.9102 31.8203V21.7383C50.9102 20.7822 51.6924 20 52.6484 20H42.0449C41.0889 20 40.3066 20.7822 40.3066 21.7383V31.8203C40.3066 32.7764 41.0889 33.5586 42.0449 33.5586H52.6484C51.6924 33.5586 50.9102 32.7764 50.9102 31.8203Z" fill="#FFAF10"/>
<path d="M40.8281 135.074C40.3807 135.074 39.983 134.789 39.8401 134.365C37.839 128.436 36.3413 126.938 30.4127 124.938C29.9886 124.794 29.7031 124.397 29.7031 123.949C29.7031 123.502 29.9886 123.104 30.4123 122.961C36.3409 120.96 37.8386 119.462 39.8397 113.534C39.983 113.11 40.3803 112.825 40.8278 112.825C41.2752 112.825 41.6729 113.11 41.8158 113.534C43.8169 119.462 45.3146 120.96 51.2432 122.961C51.667 123.104 51.9528 123.502 51.9528 123.949C51.9528 124.397 51.6673 124.794 51.2432 124.938C45.3146 126.938 43.8169 128.436 41.8158 134.365C41.6733 134.789 41.2756 135.074 40.8281 135.074Z" fill="#FFD00D"/>
<path d="M127.221 123.602C126.864 123.602 126.547 123.374 126.433 123.037C124.839 118.312 123.645 117.118 118.92 115.524C118.583 115.41 118.355 115.093 118.355 114.736C118.355 114.38 118.583 114.063 118.92 113.949C123.645 112.355 124.839 111.161 126.433 106.436C126.547 106.098 126.864 105.871 127.221 105.871C127.577 105.871 127.894 106.098 128.008 106.436C129.603 111.161 130.797 112.354 135.521 113.949C135.858 114.063 136.086 114.38 136.086 114.736C136.086 115.093 135.858 115.41 135.521 115.524C130.796 117.119 129.603 118.312 128.008 123.037C127.894 123.374 127.577 123.602 127.221 123.602Z" fill="white"/>
<path d="M95.0625 165.668H76.2891C75.3292 165.668 74.5508 164.89 74.5508 163.93C74.5508 162.97 75.3292 162.191 76.2891 162.191H95.0625C96.0227 162.191 96.8008 162.97 96.8008 163.93C96.8008 164.89 96.0227 165.668 95.0625 165.668Z" fill="white"/>
<path d="M90.8906 171.926H80.4609C79.5011 171.926 78.7227 171.147 78.7227 170.188C78.7227 169.228 79.5011 168.449 80.4609 168.449H90.8906C91.8509 168.449 92.6289 169.228 92.6289 170.188C92.6289 171.147 91.8509 171.926 90.8906 171.926Z" fill="white"/>
<path d="M64.4688 47.8125C64.1333 47.8125 63.835 47.5983 63.7275 47.2806C62.2267 42.8341 61.1034 41.7108 56.6569 40.21C56.3392 40.1025 56.125 39.8042 56.125 39.4688C56.125 39.1333 56.3392 38.835 56.6569 38.7275C61.1034 37.2271 62.2267 36.1034 63.7275 31.6569C63.835 31.3392 64.1333 31.125 64.4688 31.125C64.8042 31.125 65.1025 31.3392 65.21 31.6569C66.7108 36.1034 67.8341 37.2267 72.2806 38.7275C72.5983 38.835 72.8125 39.1333 72.8125 39.4688C72.8125 39.8042 72.5983 40.1025 72.2806 40.21C67.8341 41.7108 66.7108 42.8341 65.21 47.2806C65.1025 47.5983 64.8042 47.8125 64.4688 47.8125Z" fill="white"/>
</svg>
