<svg width="73" height="13" viewBox="0 0 73 13" fill="none" xmlns="http://www.w3.org/2000/svg">
<path d="M0.686523 6.91607C0.686523 5.86819 0.924232 4.92819 1.39965 4.09605C1.87507 3.25364 2.52102 2.59614 3.33749 2.12357C4.16431 1.651 5.07897 1.41471 6.08148 1.41471C7.25969 1.41471 8.28804 1.69723 9.16653 2.26226C10.045 2.82729 10.6858 3.62861 11.0889 4.66622H9.39907C9.09935 4.019 8.66527 3.52074 8.09684 3.17145C7.53874 2.82216 6.86695 2.64751 6.08148 2.64751C5.32701 2.64751 4.65006 2.82216 4.05062 3.17145C3.45118 3.52074 2.98093 4.019 2.63987 4.66622C2.29881 5.30316 2.12828 6.05311 2.12828 6.91607C2.12828 7.76876 2.29881 8.51871 2.63987 9.16593C2.98093 9.80287 3.45118 10.296 4.05062 10.6453C4.65006 10.9946 5.32701 11.1692 6.08148 11.1692C6.86695 11.1692 7.53874 10.9997 8.09684 10.6607C8.66527 10.3114 9.09935 9.81314 9.39907 9.16593H11.0889C10.6858 10.1933 10.045 10.9894 9.16653 11.5545C8.28804 12.1092 7.25969 12.3866 6.08148 12.3866C5.07897 12.3866 4.16431 12.1555 3.33749 11.6932C2.52102 11.2206 1.87507 10.5682 1.39965 9.73609C0.924232 8.90396 0.686523 7.96395 0.686523 6.91607Z" fill="white"/>
<path d="M16.894 12.4328C16.0982 12.4328 15.3748 12.2531 14.7237 11.8935C14.0829 11.5339 13.5765 11.0254 13.2044 10.3679C12.8427 9.70014 12.6618 8.92964 12.6618 8.05641C12.6618 7.19345 12.8478 6.43323 13.2199 5.77573C13.6023 5.10797 14.1191 4.59944 14.7702 4.25015C15.4213 3.89058 16.1499 3.7108 16.9561 3.7108C17.7622 3.7108 18.4908 3.89058 19.1419 4.25015C19.7931 4.59944 20.3046 5.10283 20.6767 5.76032C21.0591 6.41782 21.2503 7.18318 21.2503 8.05641C21.2503 8.92964 21.0539 9.70014 20.6612 10.3679C20.2788 11.0254 19.7569 11.5339 19.0954 11.8935C18.434 12.2531 17.7002 12.4328 16.894 12.4328ZM16.894 11.2C17.4005 11.2 17.8759 11.0819 18.3203 10.8456C18.7647 10.6093 19.1213 10.2549 19.39 9.78232C19.669 9.30975 19.8086 8.73445 19.8086 8.05641C19.8086 7.37837 19.6742 6.80306 19.4055 6.33049C19.1368 5.85792 18.7854 5.50863 18.3513 5.28261C17.9172 5.04633 17.447 4.92819 16.9406 4.92819C16.4238 4.92819 15.9484 5.04633 15.5143 5.28261C15.0906 5.50863 14.7495 5.85792 14.4911 6.33049C14.2327 6.80306 14.1035 7.37837 14.1035 8.05641C14.1035 8.74472 14.2276 9.32516 14.4756 9.79773C14.734 10.2703 15.0751 10.6247 15.4988 10.861C15.9225 11.087 16.3876 11.2 16.894 11.2Z" fill="white"/>
<path d="M23.8338 2.478C23.5651 2.478 23.3377 2.38554 23.1517 2.20062C22.9657 2.0157 22.8727 1.78969 22.8727 1.52258C22.8727 1.25548 22.9657 1.02946 23.1517 0.844545C23.3377 0.659625 23.5651 0.567165 23.8338 0.567165C24.0922 0.567165 24.3092 0.659625 24.4849 0.844545C24.671 1.02946 24.764 1.25548 24.764 1.52258C24.764 1.78969 24.671 2.0157 24.4849 2.20062C24.3092 2.38554 24.0922 2.478 23.8338 2.478ZM24.5159 3.84949V12.2941H23.1052V3.84949H24.5159Z" fill="white"/>
<path d="M31.0596 3.69539C32.0931 3.69539 32.9302 4.00872 33.571 4.6354C34.2118 5.25179 34.5322 6.14557 34.5322 7.31673V12.2941H33.1369V7.51706C33.1369 6.67465 32.9251 6.03257 32.5013 5.59081C32.0776 5.13879 31.4988 4.91278 30.765 4.91278C30.0209 4.91278 29.4266 5.14392 28.9822 5.60622C28.5481 6.06852 28.3311 6.74142 28.3311 7.62493V12.2941H26.9203V3.84949H28.3311V5.05146C28.6101 4.61999 28.9874 4.2861 29.4628 4.04982C29.9485 3.81353 30.4808 3.69539 31.0596 3.69539Z" fill="white"/>
<path d="M42.2471 6.76197C42.6398 6.82361 42.9964 6.98285 43.3168 7.23968C43.6475 7.49651 43.9059 7.81499 44.0919 8.1951C44.2883 8.57521 44.3865 8.98101 44.3865 9.41248C44.3865 9.95697 44.2469 10.4501 43.9679 10.8918C43.6888 11.3233 43.2806 11.6675 42.7432 11.9243C42.2161 12.1709 41.5908 12.2941 40.8673 12.2941H36.8366V1.5534H40.7123C41.4461 1.5534 42.0714 1.67668 42.5882 1.92324C43.1049 2.15953 43.4925 2.48314 43.7509 2.89407C44.0092 3.305 44.1384 3.7673 44.1384 4.28097C44.1384 4.91791 43.9627 5.44699 43.6113 5.86819C43.2703 6.27913 42.8155 6.57705 42.2471 6.76197ZM38.2474 6.1918H40.6193C41.2808 6.1918 41.7923 6.0377 42.1541 5.7295C42.5158 5.4213 42.6967 4.99496 42.6967 4.45048C42.6967 3.90599 42.5158 3.47965 42.1541 3.17145C41.7923 2.86325 41.2704 2.70915 40.5883 2.70915H38.2474V6.1918ZM40.7433 11.1384C41.4461 11.1384 41.9939 10.974 42.3866 10.6453C42.7794 10.3165 42.9757 9.85937 42.9757 9.2738C42.9757 8.67794 42.769 8.21051 42.3556 7.87149C41.9422 7.5222 41.3893 7.34755 40.6968 7.34755H38.2474V11.1384H40.7433Z" fill="white"/>
<path d="M45.8171 8.041C45.8171 7.17804 45.9928 6.42295 46.3442 5.77573C46.6956 5.11824 47.1762 4.60971 47.7859 4.25015C48.406 3.89058 49.0933 3.7108 49.8478 3.7108C50.5919 3.7108 51.2379 3.87003 51.7856 4.18851C52.3334 4.50698 52.7416 4.90764 53.0104 5.39048V3.84949H54.4366V12.2941H53.0104V10.7223C52.7313 11.2155 52.3127 11.6264 51.7546 11.9551C51.2069 12.2736 50.5661 12.4328 49.8323 12.4328C49.0778 12.4328 48.3957 12.2479 47.7859 11.8781C47.1762 11.5082 46.6956 10.9894 46.3442 10.3217C45.9928 9.65391 45.8171 8.89368 45.8171 8.041ZM53.0104 8.05641C53.0104 7.41946 52.8812 6.8647 52.6228 6.39213C52.3644 5.91956 52.013 5.55999 51.5686 5.31343C51.1345 5.0566 50.6539 4.92819 50.1269 4.92819C49.5998 4.92819 49.1192 5.05147 48.6851 5.29802C48.251 5.54458 47.9048 5.90415 47.6464 6.37672C47.388 6.84929 47.2588 7.40405 47.2588 8.041C47.2588 8.68822 47.388 9.25325 47.6464 9.73609C47.9048 10.2087 48.251 10.5734 48.6851 10.8302C49.1192 11.0768 49.5998 11.2 50.1269 11.2C50.6539 11.2 51.1345 11.0768 51.5686 10.8302C52.013 10.5734 52.3644 10.2087 52.6228 9.73609C52.8812 9.25325 53.0104 8.69335 53.0104 8.05641Z" fill="white"/>
<path d="M59.8282 12.4328C59.1771 12.4328 58.5931 12.325 58.0764 12.1092C57.5596 11.8832 57.1514 11.575 56.8517 11.1846C56.5519 10.784 56.3866 10.3268 56.3556 9.81314H57.8128C57.8542 10.2343 58.0505 10.5785 58.4019 10.8456C58.7637 11.1127 59.2339 11.2463 59.8127 11.2463C60.3501 11.2463 60.7738 11.1281 61.0839 10.8918C61.394 10.6556 61.549 10.3576 61.549 9.99806C61.549 9.62822 61.3836 9.35598 61.0529 9.18134C60.7222 8.99642 60.2106 8.81663 59.5181 8.64199C58.8877 8.47761 58.3709 8.31324 57.9679 8.14887C57.5751 7.97422 57.2341 7.72253 56.9447 7.39378C56.6656 7.05476 56.5261 6.61301 56.5261 6.06852C56.5261 5.63704 56.6553 5.24152 56.9137 4.88196C57.172 4.52239 57.5389 4.23987 58.0144 4.03441C58.4898 3.81867 59.0324 3.7108 59.6421 3.7108C60.5826 3.7108 61.3423 3.94708 61.921 4.41966C62.4998 4.89223 62.8099 5.53945 62.8512 6.36131H61.4405C61.4095 5.91956 61.2286 5.56513 60.8979 5.29802C60.5775 5.03092 60.1434 4.89737 59.5956 4.89737C59.0892 4.89737 58.6861 5.00524 58.3864 5.22097C58.0867 5.43671 57.9368 5.71923 57.9368 6.06852C57.9368 6.3459 58.0247 6.57705 58.2004 6.76197C58.3864 6.93662 58.6138 7.08044 58.8825 7.19345C59.1616 7.29618 59.544 7.41433 60.0297 7.54788C60.6395 7.71225 61.1356 7.87663 61.518 8.041C61.9004 8.1951 62.2259 8.43138 62.4947 8.74986C62.7737 9.06833 62.9184 9.4844 62.9287 9.99806C62.9287 10.4604 62.7995 10.8764 62.5412 11.2463C62.2828 11.6161 61.9159 11.9089 61.4405 12.1246C60.9754 12.3301 60.438 12.4328 59.8282 12.4328Z" fill="white"/>
<path d="M72.6716 7.74821C72.6716 8.01531 72.6561 8.29783 72.6251 8.59576H65.8349C65.8866 9.42789 66.1708 10.0802 66.6875 10.5528C67.2146 11.0151 67.8502 11.2463 68.5944 11.2463C69.2042 11.2463 69.7106 11.1076 70.1136 10.8302C70.5271 10.5425 70.8164 10.1624 70.9818 9.68986H72.5011C72.2737 10.5015 71.8189 11.1641 71.1368 11.6777C70.4547 12.1811 69.6072 12.4328 68.5944 12.4328C67.7882 12.4328 67.0648 12.2531 66.424 11.8935C65.7935 11.5339 65.2975 11.0254 64.9357 10.3679C64.574 9.70014 64.3931 8.92964 64.3931 8.05641C64.3931 7.18318 64.5688 6.41782 64.9202 5.76032C65.2716 5.10283 65.7625 4.59944 66.393 4.25015C67.0338 3.89058 67.7676 3.7108 68.5944 3.7108C69.4005 3.7108 70.1136 3.88544 70.7338 4.23474C71.3539 4.58403 71.8293 5.06688 72.16 5.68327C72.5011 6.2894 72.6716 6.97771 72.6716 7.74821ZM71.2143 7.45542C71.2143 6.92121 71.0955 6.46405 70.8578 6.08393C70.6201 5.69355 70.2945 5.40076 69.8811 5.20556C69.478 5.0001 69.0285 4.89737 68.5324 4.89737C67.8192 4.89737 67.2095 5.12338 66.703 5.5754C66.207 6.02743 65.9227 6.6541 65.8504 7.45542H71.2143Z" fill="white"/>
</svg>
