<svg width="115" height="124" viewBox="0 0 115 124" fill="none" xmlns="http://www.w3.org/2000/svg">
<path opacity="0.253397" fill-rule="evenodd" clip-rule="evenodd" d="M20.859 88.6918C20.859 88.6918 21.4301 85.5341 23.6757 92.9596C25.9214 100.385 51.3145 116.637 59.8146 103.475C68.3148 90.3133 80.3321 105.083 88.6335 101.132C96.9348 97.1823 98.2497 91.9691 92.0621 79.4077C85.8745 66.8463 101.095 51.5397 85.9229 41.699C70.7507 31.8584 82.4964 34.2759 82.4964 34.2759L82.4191 74.452L62.1097 92.8842L20.859 88.6918Z" fill="url(#paint0_linear_22_2601)"/>
<path opacity="0.518059" fill-rule="evenodd" clip-rule="evenodd" d="M81.0744 49.5873C81.0744 49.5873 79.3103 49.4846 83.2169 47.7328C87.1236 45.981 94.2942 30.7721 86.5287 26.9446C78.7633 23.117 86.0248 15.4386 83.3068 11.0958C80.5889 6.75296 77.6513 6.37667 71.2035 10.6669C64.7557 14.9571 52.3165 3.49834 47.9609 12.5944C43.6054 21.6905 51.0038 10.6469 51.0038 10.6469L69.145 16.3599L80.5863 26.3891L81.0744 49.5873Z" fill="url(#paint1_linear_22_2601)"/>
<circle cx="45.3541" cy="53.8248" r="39.8541" stroke="#FAA9C6" stroke-width="10"/>
<path d="M42.6566 14.0621C49.7976 13.5777 56.9373 15.0252 63.3257 18.2528C69.7141 21.4803 75.1155 26.3687 78.9624 32.4045C82.8093 38.4403 84.9597 45.4006 85.1879 52.5544C85.416 59.7082 83.7134 66.7914 80.2589 73.06C76.8044 79.3287 71.7255 84.5513 65.5558 88.1793C59.386 91.8074 52.353 93.707 45.1956 93.6785C38.0382 93.6501 31.0206 91.6946 24.8799 88.0176C18.7391 84.3407 13.7019 79.0778 10.2974 72.7819" stroke="url(#paint2_linear_22_2601)" stroke-width="10" stroke-linecap="round"/>
<defs>
<linearGradient id="paint0_linear_22_2601" x1="23.9209" y1="50.5795" x2="142.934" y2="94.5362" gradientUnits="userSpaceOnUse">
<stop stop-color="#FD749B"/>
<stop offset="1" stop-color="#281AC8"/>
</linearGradient>
<linearGradient id="paint1_linear_22_2601" x1="59.2576" y1="50.2641" x2="75.8811" y2="-18.6824" gradientUnits="userSpaceOnUse">
<stop stop-color="#FD749B"/>
<stop offset="1" stop-color="#281AC8"/>
</linearGradient>
<linearGradient id="paint2_linear_22_2601" x1="49.8395" y1="-5.15002" x2="54.9006" y2="153.766" gradientUnits="userSpaceOnUse">
<stop stop-color="#FD749B"/>
<stop offset="1" stop-color="#281AC8"/>
</linearGradient>
</defs>
</svg>
