<svg width="17" height="4" viewBox="0 0 17 4" fill="none" xmlns="http://www.w3.org/2000/svg">
<path d="M2.36661 3.73333C1.33568 3.73333 0.499943 2.8976 0.499943 1.86667C0.499943 0.835735 1.33568 0 2.36661 0C3.39754 0 4.23328 0.835735 4.23328 1.86667C4.23328 2.8976 3.39754 3.73333 2.36661 3.73333Z" fill="white"/>
<path d="M8.50003 3.73333C7.4691 3.73333 6.63337 2.8976 6.63337 1.86667C6.63337 0.835735 7.4691 0 8.50003 0C9.53096 0 10.3667 0.835735 10.3667 1.86667C10.3667 2.8976 9.53096 3.73333 8.50003 3.73333Z" fill="white"/>
<path d="M14.6333 3.73333C13.6024 3.73333 12.7667 2.8976 12.7667 1.86667C12.7667 0.835735 13.6024 0 14.6333 0C15.6643 0 16.5 0.835735 16.5 1.86667C16.5 2.8976 15.6643 3.73333 14.6333 3.73333Z" fill="white"/>
</svg>
