<svg width="17" height="16" viewBox="0 0 17 16" fill="none" xmlns="http://www.w3.org/2000/svg">
<path d="M3.09282 1.4337H10.4177C11.5687 1.4337 12.5105 2.37547 12.5105 3.52652V7.81679C12.5105 8.96784 11.5687 9.90961 10.4177 9.90961H6.28436L3.40674 12.421V9.90961H2.46497C1.62785 9.90961 1 9.28176 1 8.49696V3.52652C1 2.37547 1.94177 1.4337 3.09282 1.4337Z" stroke="white" stroke-linecap="round" stroke-linejoin="round"/>
<path d="M5.7085 10.8515C5.7085 11.4271 6.17938 11.8979 6.7549 11.9503L10.365 12.0549L13.2426 14.5663V12.0549H14.1844C14.9692 12.0549 15.6494 11.4271 15.6494 10.5899V5.61949C15.6494 4.46844 14.7076 3.52667 13.5566 3.52667H12.5102" stroke="white" stroke-linecap="round" stroke-linejoin="round"/>
</svg>
