<svg width="61" height="17" viewBox="0 0 61 17" fill="none" xmlns="http://www.w3.org/2000/svg">
<g clip-path="url(#clip0_22_1122)">
<path d="M32.9063 7.93456C33.7959 7.33594 34.3809 6.32031 34.3809 5.16747C34.3809 3.55759 33.2393 2.21384 31.7212 1.90234V0.833C31.7212 0.649406 31.5723 0.5 31.3882 0.5C31.2041 0.5 31.0547 0.649406 31.0547 0.833V1.83397C31.0522 1.83397 31.0498 1.83397 31.0478 1.83397H29.7075V0.833C29.7075 0.649406 29.5581 0.5 29.374 0.5C29.1899 0.5 29.0405 0.649406 29.0405 0.833V1.83397H27.5014V1.833H26.0478C25.8638 1.833 25.7144 1.98244 25.7144 2.1665C25.7144 2.35056 25.8638 2.5 26.0479 2.5H27.0479V14.5H26.0479C25.8638 14.5 25.7144 14.6494 25.7144 14.8335C25.7144 15.0176 25.8638 15.167 26.0479 15.167H29.0405V16.1665C29.0405 16.3506 29.1899 16.5 29.374 16.5C29.5581 16.5 29.7075 16.3506 29.7075 16.1665V15.167H31.0547V16.1665C31.0547 16.3506 31.2041 16.5 31.3882 16.5C31.5723 16.5 31.7212 16.3506 31.7212 16.1665V15.167H32.0479C34.0728 15.167 35.7144 13.5254 35.7144 11.5C35.7144 9.7705 34.5171 8.32128 32.9063 7.93456ZM27.7144 2.50097H31.0479C31.7598 2.50097 32.4297 2.77831 32.9331 3.28172C33.437 3.78512 33.7144 4.45506 33.7144 5.16747C33.7144 5.87987 33.437 6.54931 32.9331 7.05272C32.4414 7.54491 31.7915 7.82078 31.0977 7.83347H27.7144V2.50097ZM34.1689 13.6216C33.6025 14.1885 32.8491 14.5 32.0479 14.5H27.7144V8.50097H31.0479C31.064 8.50097 31.0801 8.50047 31.0957 8.5H32.0479C32.8491 8.5 33.6025 8.8125 34.1689 9.37891C34.7359 9.94531 35.0479 10.6987 35.0479 11.5C35.0479 12.3018 34.7359 13.0547 34.1689 13.6216Z" fill="url(#paint0_linear_22_1122)"/>
</g>
<defs>
<linearGradient id="paint0_linear_22_1122" x1="30.7144" y1="0.5" x2="31" y2="21" gradientUnits="userSpaceOnUse">
<stop stop-color="#FD749B"/>
<stop offset="1" stop-color="#281AC8"/>
</linearGradient>
<clipPath id="clip0_22_1122">
<rect width="16" height="16" fill="white" transform="translate(22.7144 0.5)"/>
</clipPath>
</defs>
</svg>
