<svg width="64" height="5" viewBox="0 0 64 5" fill="none" xmlns="http://www.w3.org/2000/svg">
<path d="M25.8667 4.3667C24.8358 4.3667 24.0001 3.53096 24.0001 2.50003C24.0001 1.4691 24.8358 0.633362 25.8667 0.633362C26.8977 0.633362 27.7334 1.4691 27.7334 2.50003C27.7334 3.53096 26.8977 4.3667 25.8667 4.3667Z" fill="white"/>
<path d="M32 4.3667C30.9691 4.3667 30.1334 3.53096 30.1334 2.50003C30.1334 1.4691 30.9691 0.633362 32 0.633362C33.031 0.633362 33.8667 1.4691 33.8667 2.50003C33.8667 3.53096 33.031 4.3667 32 4.3667Z" fill="white"/>
<path d="M38.1333 4.3667C37.1024 4.3667 36.2667 3.53096 36.2667 2.50003C36.2667 1.4691 37.1024 0.633362 38.1333 0.633362C39.1643 0.633362 40 1.4691 40 2.50003C40 3.53096 39.1643 4.3667 38.1333 4.3667Z" fill="white"/>
</svg>
